<?xml version="1.0" encoding="utf-8"?>
<!-- Generator: Adobe Illustrator 16.0.0, SVG Export Plug-In . SVG Version: 6.00 Build 0)  -->
<!DOCTYPE svg PUBLIC "-//W3C//DTD SVG 1.1//EN" "http://www.w3.org/Graphics/SVG/1.1/DTD/svg11.dtd">
<svg version="1.1" id="Layer_1" xmlns="http://www.w3.org/2000/svg" xmlns:xlink="http://www.w3.org/1999/xlink" x="0px" y="0px"
	 width="150px" height="150px" viewBox="0 0 150 150" enable-background="new 0 0 150 150" xml:space="preserve">
<rect opacity="0" fill="#664223" width="150" height="150"/>
<g>
	<path fill="#664223" d="M131.875,22.5v113.75h-105c-4.832,0-8.75-3.913-8.75-8.75s3.918-8.75,8.75-8.75h96.25V5h-96.25
		c-9.665,0-17.5,7.836-17.5,17.5v105c0,9.664,7.835,17.5,17.5,17.5h113.75V22.5H131.875z M23.848,24.097
		c0-1.125,0.252-1.939,0.756-2.443s1.318-0.756,2.443-0.756h6.803c1.77,0,3.287,0.164,4.553,0.492s2.414,0.943,3.445,1.846
		c2.684,2.297,4.025,5.789,4.025,10.477c0,1.547-0.135,2.959-0.404,4.236s-0.686,2.429-1.248,3.454s-1.283,1.942-2.162,2.751
		c-0.691,0.621-1.447,1.119-2.268,1.494s-1.702,0.639-2.646,0.791s-2.007,0.229-3.19,0.229h-6.803c-0.949,0-1.664-0.144-2.145-0.431
		s-0.794-0.691-0.94-1.213s-0.22-1.198-0.22-2.03V24.097z"/>
	<path fill="#664223" d="M35.062,42.448c0.492-0.047,1.002-0.164,1.529-0.352s0.984-0.451,1.371-0.791
		c1.746-1.477,2.619-4.02,2.619-7.629c0-2.543-0.384-4.447-1.151-5.713s-1.714-2.071-2.839-2.417s-2.484-0.519-4.078-0.519h-3.445
		v17.49h3.955C33.891,42.519,34.57,42.495,35.062,42.448z"/>
</g>
</svg>
